# xmcd CD database file
#
# Track frame offsets:
#	225
#	17845
#	32899
#	45911
#	59087
#	75179
#	94109
#	108633
#	121859
#	133293
#	147172
#	158197
#	168058
#
# Disc length: 2419 seconds
#
# Revision: 0
# Processed by: cddbd v1.5.1PL2 Copyright (c) Steve Scherf et al.
# Submitted via: CDex 1.50
#
DISCID=a609700d
DTITLE=Leanne Douglas - My Yellow Guitar
DYEAR=2005
DGENRE=Country
TTITLE0=Our Spirit Land
TTITLE1=Walkabout
TTITLE2=Southerly Breeze
TTITLE3=My Yellow Guitar
TTITLE4=Teralba
TTITLE5=Avondale
TTITLE6=Venus And Me
TTITLE7=The Rise And fall Of Flingel Blunt
TTITLE8=Dance On
TTITLE9=Apache
TTITLE10=Undertow
TTITLE11=Billy On The Boil
TTITLE12=Boolaroo
EXTD=YEAR: 2005
EXTT0=
EXTT1=
EXTT2=
EXTT3=
EXTT4=
EXTT5=
EXTT6=
EXTT7=
EXTT8=
EXTT9=
EXTT10=
EXTT11=
EXTT12=
PLAYORDER=
